<?xml version="1.0" encoding="UTF-8"?>
<svg width="38px" height="38px" viewBox="0 0 38 38" version="1.1" xmlns="http://www.w3.org/2000/svg" xmlns:xlink="http://www.w3.org/1999/xlink">
    <title>extension-icon-outline</title>
    <g id="extension-icon-outline" stroke="none" stroke-width="1" fill="none" fill-rule="evenodd">
        <rect id="Rectangle" fill="#DDDDDD" fill-rule="nonzero" x="0" y="0" width="38" height="38" rx="16"></rect>
        <circle id="Oval" fill="#222222" cx="11" cy="12" r="2"></circle>
        <path d="M27,10 C28.1045695,10 29,10.8954305 29,12 C29,13.1045695 28.1045695,14 27,14 L18,14 C16.8954305,14 16,13.1045695 16,12 C16,10.8954305 16.8954305,10 18,10 L27,10 Z" id="Path" fill="#222222" fill-rule="nonzero"></path>
        <path d="M27,17 C28.1045695,17 29,17.8954305 29,19 C29,20.1045695 28.1045695,21 27,21 L11,21 C9.8954305,21 9,20.1045695 9,19 C9,17.8954305 9.8954305,17 11,17 L27,17 Z" id="Path" fill="#222222" fill-rule="nonzero"></path>
        <path d="M23,24 C24.1045695,24 25,24.8954305 25,26 C25,27.1045695 24.1045695,28 23,28 L11,28 C9.8954305,28 9,27.1045695 9,26 C9,24.8954305 9.8954305,24 11,24 L23,24 Z" id="Path" fill="#222222" fill-rule="nonzero"></path>
    </g>
</svg>