<?xml version="1.0" encoding="UTF-8"?>
<svg width="38px" height="38px" viewBox="0 0 38 38" version="1.1" xmlns="http://www.w3.org/2000/svg" xmlns:xlink="http://www.w3.org/1999/xlink">
    <title>extension-icon-outline</title>
    <g id="extension-icon-outline" stroke="none" stroke-width="1" fill="none" fill-rule="evenodd">
        <rect id="Rectangle" fill="#DDDDDD" fill-rule="nonzero" x="0" y="0" width="38" height="38" rx="16"></rect>
        <circle id="Oval" fill="#222222" cx="11" cy="11" r="2"></circle>
        <path d="M27,9 C28.1045695,9 29,9.8954305 29,11 C29,12.1045695 28.1045695,13 27,13 L18,13 C16.8954305,13 16,12.1045695 16,11 C16,9.8954305 16.8954305,9 18,9 L27,9 Z" id="Path" fill="#222222" fill-rule="nonzero"></path>
        <path d="M27,17 C28.1045695,17 29,17.8954305 29,19 C29,20.1045695 28.1045695,21 27,21 L11,21 C9.8954305,21 9,20.1045695 9,19 C9,17.8954305 9.8954305,17 11,17 L27,17 Z" id="Path" fill="#222222" fill-rule="nonzero"></path>
        <path d="M23,25 C24.1045695,25 25,25.8954305 25,27 C25,28.1045695 24.1045695,29 23,29 L11,29 C9.8954305,29 9,28.1045695 9,27 C9,25.8954305 9.8954305,25 11,25 L23,25 Z" id="Path" fill="#222222" fill-rule="nonzero"></path>
    </g>
</svg>